<?xml version="1.0"?>
<svg xmlns="http://www.w3.org/2000/svg" xmlns:xlink="http://www.w3.org/1999/xlink" version="1.1" id="Capa_1" x="0px" y="0px" viewBox="0 0 455.431 455.431" style="enable-background:new 0 0 455.431 455.431;" xml:space="preserve" width="512px" height="512px"><g transform="matrix(0.99 -2.42480e-16 2.42480e-16 0.99 2.27715 2.27715)"><path style="fill:#D34178;" d="M405.493,412.764c-69.689,56.889-287.289,56.889-355.556,0c-69.689-56.889-62.578-300.089,0-364.089  s292.978-64,355.556,0S475.182,355.876,405.493,412.764z" data-original="#D34178"/><path style="fill:#E84E89;" d="M229.138,313.209c-62.578,49.778-132.267,75.378-197.689,76.8  c-48.356-82.489-38.4-283.022,18.489-341.333c51.2-52.622,211.911-62.578,304.356-29.867  C377.049,112.676,330.116,232.142,229.138,313.209z" data-original="#E84E89"/><path style="fill:#FFFFFF" d="M300.249,348.764l-22.756-52.622H176.516l-22.756,52.622H96.871l103.822-241.778h52.622  l103.822,241.778H300.249z M227.716,179.52l-29.867,69.689h61.156L227.716,179.52z" data-original="#FFFFFF" class="active-path" data-old_color="#FFFFFF"/></g> </svg>
